<svg width="512" height="512" viewBox="0 0 512 512" fill="none" xmlns="http://www.w3.org/2000/svg">
<path d="M272.773 256.954C249.042 236.826 218.817 225.741 187.667 225.741C115.065 225.741 56 284.807 56 357.407V385.015C56 409.648 73.485 430.745 97.642 435.349H277.693C301.848 430.745 319.334 409.648 319.334 385.015V365.804V357.407C319.333 318.662 302.363 282.048 272.773 256.954Z" fill="white"/>
<path d="M410.598 151.495C410.896 124.188 389 101.81 361.693 101.512C334.386 101.214 312.007 123.11 311.71 150.417C311.412 177.724 333.308 200.103 360.615 200.4C387.922 200.698 410.3 178.802 410.598 151.495Z" fill="white"/>
<path d="M187.667 215.741C226.014 215.741 257.212 184.543 257.212 146.196C257.212 107.849 226.014 76.65 187.667 76.65C149.319 76.65 118.121 107.848 118.121 146.195C118.121 184.542 149.319 215.741 187.667 215.741Z" fill="white"/>
<path d="M361.176 210.398C329.325 210.398 300.237 225.951 282.544 252.216C283.019 252.645 283.482 253.084 283.95 253.518C284.358 253.897 284.772 254.271 285.176 254.654C285.739 255.188 286.288 255.732 286.841 256.273C287.195 256.621 287.556 256.962 287.906 257.313C288.579 257.988 289.239 258.672 289.897 259.359C290.115 259.586 290.339 259.808 290.556 260.037C291.428 260.958 292.288 261.889 293.132 262.832C293.303 263.022 293.467 263.218 293.637 263.408C294.307 264.163 294.974 264.92 295.627 265.688C295.898 266.006 296.16 266.333 296.429 266.654C296.969 267.301 297.51 267.947 298.037 268.601C298.338 268.974 298.628 269.354 298.925 269.73C299.408 270.342 299.894 270.954 300.366 271.574C300.674 271.977 300.971 272.388 301.274 272.794C301.722 273.395 302.172 273.994 302.61 274.602C302.918 275.028 303.215 275.46 303.518 275.89C303.938 276.487 304.36 277.081 304.77 277.684C305.073 278.127 305.366 278.577 305.663 279.023C306.06 279.62 306.459 280.216 306.847 280.819C307.141 281.276 307.426 281.738 307.715 282.198C308.092 282.799 308.469 283.399 308.836 284.006C309.12 284.475 309.398 284.948 309.676 285.42C310.033 286.024 310.391 286.63 310.739 287.239C311.013 287.72 311.281 288.205 311.55 288.688C311.888 289.297 312.225 289.907 312.554 290.521C312.818 291.012 313.075 291.506 313.332 292C313.651 292.614 313.97 293.229 314.28 293.848C314.532 294.348 314.777 294.852 315.023 295.355C315.325 295.974 315.625 296.594 315.918 297.218C316.157 297.728 316.392 298.239 316.625 298.752C316.908 299.376 317.189 300.002 317.464 300.63C317.692 301.148 317.914 301.668 318.135 302.19C318.402 302.82 318.664 303.451 318.921 304.085C319.135 304.609 319.344 305.136 319.551 305.663C319.801 306.3 320.046 306.938 320.287 307.579C320.486 308.109 320.683 308.642 320.876 309.175C321.108 309.817 321.335 310.46 321.559 311.106C321.744 311.645 321.929 312.184 322.109 312.724C322.324 313.371 322.532 314.021 322.738 314.67C322.91 315.214 323.081 315.758 323.246 316.304C323.444 316.956 323.635 317.613 323.823 318.269C323.981 318.818 324.138 319.367 324.29 319.917C324.47 320.576 324.643 321.237 324.813 321.899C324.957 322.452 325.1 323.004 325.236 323.559C325.4 324.224 325.554 324.892 325.708 325.56C325.837 326.117 325.966 326.672 326.088 327.231C326.235 327.903 326.37 328.578 326.507 329.253C326.619 329.811 326.736 330.368 326.841 330.928C326.971 331.611 327.089 332.295 327.209 332.981C327.306 333.537 327.406 334.092 327.497 334.65C327.609 335.343 327.71 336.039 327.812 336.734C327.893 337.289 327.979 337.841 328.054 338.396C328.149 339.103 328.231 339.812 328.316 340.52C328.381 341.068 328.453 341.615 328.512 342.164C328.59 342.891 328.654 343.621 328.721 344.35C328.771 344.884 328.826 345.416 328.869 345.952C328.931 346.715 328.977 347.48 329.026 348.246C329.058 348.749 329.098 349.252 329.126 349.756C329.171 350.603 329.199 351.451 329.23 352.3C329.245 352.726 329.269 353.15 329.28 353.576C329.314 354.851 329.333 356.13 329.333 357.41V360.807H426.803C443.747 357.515 456 342.69 456 325.388V305.222C456 252.936 413.462 210.398 361.176 210.398Z" fill="white"/>
</svg>
