<svg xmlns="http://www.w3.org/2000/svg" width="1177" height="1177" viewBox="0 0 1177 1177">
  <g id="Group_94" data-name="Group 94" transform="translate(-129 2347)">
    <rect id="Rectangle_168" data-name="Rectangle 168" width="1177" height="1177" transform="translate(129 -2347)" fill="#e5e5e5"/>
    <path id="user-astronaut-solid" d="M237.582,604.753a21.839,21.839,0,0,0-21.6,21.6v64.795h43.2V626.351A21.75,21.75,0,0,0,237.582,604.753Zm129.59,0a21.6,21.6,0,1,0,21.6,21.6A21.75,21.75,0,0,0,367.171,604.753ZM221.383,232.182l11.076,33.234a5.4,5.4,0,0,0,10.246,0l11.076-33.234,33.234-11.073a5.4,5.4,0,0,0,0-10.251L253.78,199.784l-11.069-33.207a5.4,5.4,0,0,0-10.246,0l-11.083,33.207-33.207,11.069a5.4,5.4,0,0,0,0,10.251ZM453.7,425.757a258.094,258.094,0,0,1-151.323,49.406c-55.481,0-108.032-18.129-151.323-49.393C62.838,459.234,0,544.413,0,644.3a46.785,46.785,0,0,0,46.787,46.841h126V604.753a43.064,43.064,0,0,1,43.2-43.2H388.77a43.064,43.064,0,0,1,43.2,43.2v86.393h126A46.768,46.768,0,0,0,604.753,644.3C604.753,544.413,541.983,459.234,453.7,425.757ZM86.393,302.376h18.224c33.477,76.269,109.206,129.59,197.76,129.59s164.417-53.321,197.76-129.59H518.36a21.75,21.75,0,0,0,21.6-21.6V151.188a21.75,21.75,0,0,0-21.6-21.6H500.136C466.794,53.321,390.93,0,302.376,0S138.094,53.321,104.617,129.59H86.393a21.794,21.794,0,0,0-21.6,21.6v129.59A21.706,21.706,0,0,0,86.393,302.376Zm54-118.791c0-29.833,29.023-54,64.795-54H399.569c35.772,0,64.8,24.136,64.8,54v32.4a129.623,129.623,0,0,1-129.59,129.59H269.979a129.623,129.623,0,0,1-129.59-129.59Z" transform="translate(415 -2104)" fill="#4b4b4b"/>
  </g>
</svg>
