<?xml version="1.0" standalone="no"?>
<!DOCTYPE svg PUBLIC "-//W3C//DTD SVG 20010904//EN"
 "http://www.w3.org/TR/2001/REC-SVG-20010904/DTD/svg10.dtd">
<svg version="1.0" xmlns="http://www.w3.org/2000/svg"
 width="640.000000pt" height="480.000000pt" viewBox="0 0 640.000000 480.000000"
 preserveAspectRatio="xMidYMid meet">

<g transform="translate(0.000000,480.000000) scale(0.100000,-0.100000)"
fill="#000000" stroke="none">
<path d="M3105 4783 c-65 -24 -110 -56 -146 -106 -49 -68 -59 -120 -59 -322
l0 -181 -81 -12 c-297 -47 -521 -153 -700 -331 -155 -154 -232 -313 -259 -535
-45 -358 100 -660 413 -864 173 -112 354 -181 836 -318 392 -112 495 -146 611
-204 197 -99 256 -198 219 -372 -16 -75 -40 -117 -97 -170 -176 -164 -556
-212 -983 -122 -180 37 -356 89 -507 146 -119 46 -146 53 -207 53 -117 -1
-211 -58 -260 -160 -69 -140 -23 -308 105 -387 103 -63 484 -185 747 -240
l162 -33 3 -200 c3 -222 10 -251 77 -328 82 -92 237 -121 353 -64 64 32 111
80 142 146 18 40 22 71 26 240 l5 194 105 18 c471 79 802 352 908 748 34 132
37 355 4 473 -80 292 -303 508 -679 659 -133 53 -239 87 -518 165 -359 101
-500 147 -620 204 -224 105 -288 210 -240 393 8 31 27 75 41 97 102 155 421
241 782 212 154 -12 486 -62 585 -87 126 -32 233 -13 311 56 85 75 121 192 91
295 -34 119 -108 189 -236 224 -74 20 -474 90 -516 90 -21 0 -22 2 -25 208 -3
229 -10 258 -77 335 -71 81 -213 117 -316 80z"/>
</g>
</svg>
