<svg xmlns="http://www.w3.org/2000/svg" viewBox="0 0 460.57141 394.7037"><defs><style>.cls-1{fill:#ffeee9;}.cls-2{fill:#ffe0d4;}.cls-3{fill:#d6a499;}.cls-4{fill:#fff;}.cls-5{fill:#fd7422;}.cls-6{fill:#984614;}.cls-7{fill:#ffe3d3;}.cls-10,.cls-18,.cls-20,.cls-21,.cls-22,.cls-24,.cls-25,.cls-26,.cls-27,.cls-8,.cls-9{fill:none;}.cls-8{stroke:#fd7422;}.cls-10,.cls-18,.cls-20,.cls-22,.cls-24,.cls-25,.cls-26,.cls-27,.cls-8,.cls-9{stroke-linecap:round;stroke-linejoin:round;}.cls-10,.cls-8,.cls-9{stroke-width:2px;}.cls-9{stroke:#fff;}.cls-10{stroke:#f9f7f7;}.cls-11{fill:#ffa08b;}.cls-12{fill:#006a66;}.cls-13{fill:#ff6a6e;}.cls-14{fill:#465a64;}.cls-15{fill:#b56f68;}.cls-16{fill:#00445b;}.cls-17{fill:#724f2b;}.cls-18{stroke:#004740;}.cls-19{fill:#025650;}.cls-20{stroke:#b56f68;}.cls-21,.cls-26{stroke:#ff8d95;}.cls-21{stroke-miterlimit:10;}.cls-22{stroke:#005c75;}.cls-23{fill:#b7515d;}.cls-24{stroke:#a53f4e;}.cls-25{stroke:#771400;}.cls-27{stroke:#d8350f;}</style></defs><title>filter_data_unavailable</title><g id="OBJECT"><path class="cls-1" d="M414.46709,402.3298a147.155,147.155,0,0,1-18.88,16.4h-279.79s-30.09-14.04-61.5999-65.1c-10.69-17.32-15.1501-38.76-14.4701-60.1,1.31-41.57,22.13-82.76,54.42-92.4,48.87-14.58,50-66.77,113.07-82.46,63.07-15.68,100.3401,20.33,100.3401,20.33,61.62,52.82,129.7899,78.26,145.2799,153.94.27,1.33.52,2.66.7301,3.97C461.56719,344.9598,434.29709,382.2698,414.46709,402.3298Z" transform="translate(-19.71428 -52.64812)"/><path class="cls-2" d="M414.46709,405.9337a242.97357,242.97357,0,0,1-32.73,16.4h-265.94s-30.09-14.04-61.5999-65.1c-10.69-17.32-15.1501-38.76-14.4701-60.1,28.73,23.22,91.4701,58.36,207.6,57.75,112.83-.59,175.96-32.33,206.2401-54.37C461.56719,348.5637,434.29709,385.8737,414.46709,405.9337Z" transform="translate(-19.71428 -52.64812)"/><path class="cls-3" d="M118.8314,402.8781s-50.7438.7894-60.5023,7.6742-8.5875,17.2507,76.4572,24.7537,57.498,12.501,122.34679,12.013c64.84891-.4878,125.1757-15.6228,162.2577-22.0205s28.4584-21.6708-27.2441-25.2564S168.5993,409.2995,118.8314,402.8781Z" transform="translate(-19.71428 -52.64812)"/><path class="cls-4" d="M59.7843,294.8009a17.77408,17.77408,0,0,1-14.9498-23.2326c4.1361-12.5027,14.1237-27.4278,37.5927-35.7433,30.2175-10.7067,64.2057-.5301,74.2697,27.8735,6.995,19.7418-3.4288,37.0394-19.8412,52.1501-4.1772,2.5359-4.1211,8.667-2.7929,14.6498a17.602,17.602,0,0,1-11.4019,20.3093h0a17.68745,17.68745,0,0,1-22.579-10.7647l-1.8728-5.2855c-3.1406-8.8638-5.3077-16.2581,1.6874-25.3118,9.5049-12.2112,20.7732-16.8841,15.7056-31.1865a17.02666,17.02666,0,0,0-22.1702-10.7363,23.535,23.535,0,0,0-14.8647,15.2912,17.76955,17.76955,0,0,1-18.7828,11.9868Zm98.0951,82.3002a24.47083,24.47083,0,1,1-31.3744-14.9579A24.39925,24.39925,0,0,1,157.8794,377.1011Z" transform="translate(-19.71428 -52.64812)"/><path class="cls-4" d="M345.45089,272.3776a16.6229,16.6229,0,0,1,1.13611-25.8127c9.91129-7.3111,25.59859-13.3107,48.00809-6.9819,28.8533,8.1485,49.3048,34.2776,41.6454,61.3989-5.3237,18.8506-22.62549,26.426-43.3182,29.0968-4.5589-.3203-7.8279,4.3907-10.0457,9.6759a16.462,16.462,0,0,1-19.6754,9.3463h0a16.54181,16.54181,0,0,1-11.4234-20.415l1.4253-5.047c2.3903-8.4635,4.73-15.2794,14.9611-18.413,13.85281-4.1884,24.97981-1.6691,28.8367-15.3258a15.92381,15.92381,0,0,0-11.1266-20.1725,22.01048,22.01048,0,0,0-19.6085,3.6446,16.61863,16.61863,0,0,1-20.8149-.9945ZM375.886,388.1989a22.88588,22.88588,0,1,1-15.87321-28.3674A22.819,22.819,0,0,1,375.886,388.1989Z" transform="translate(-19.71428 -52.64812)"/><path class="cls-5" d="M63.3886,381.7398s-5.0161-17.3058-15.5501-19.5631c-10.5339-2.2571-7.2163-5.016-9.2513-10.7846s-4.7938-7.2734-8.5559-8.0259-3.0097-10.5339-8.2767-11.7879,1.5049,12.5404,0,20.3154,4.2638,6.521,7.2734,15.55,0,14.7977,3.7622,21.8203,8.7961.3423,10.5338,10.0322,14.5469,15.2993,24.5792,14.0453,11.2237-2.9926,11.2237-2.9926Z" transform="translate(-19.71428 -52.64812)"/><path class="cls-6" d="M65.0354,406.3196s-18.852-15.3021-18.4321-27.481,1.9793-14.5755-2.9797-21.8964c-4.9589-7.3207-.3449-16.7703,2.7817-24.4586s-7.3171-13.7022-.7262-21.3182,22.1182,8.6287,23.9504,23.6377,5.2015,19.3347,14.1031,25.937,10.5323,17.7274,9.8099,24.0803c-.7227,6.353,9.9043,9.1027,7.069,25.5452C100.6115,410.3656,90.9987,415.6736,65.0354,406.3196Z" transform="translate(-19.71428 -52.64812)"/><path class="cls-5" d="M78.4632,407.9129s-5.4362-13.7245,0-22.6128,4.7785-9.0291,5.0293-16.0516,4.0128-10.2831,7.5241-11.2863,5.7686-3.7401,7.5242-8.5165,7.2735-5.8271,10.534-1.4142-1.7557,16.9533,0,22.7219a24.6601,24.6601,0,0,1-1.2541,17.0548c-2.2572,4.7654,2.0065,8.5275,0,15.5501s-4.8905,11.5713-25.6449,11.3034Z" transform="translate(-19.71428 -52.64812)"/><path class="cls-3" d="M108.4137,426.8115s1.6788-4.9311,9.9436-6.9208,15.6988,5.3711,16.4371,8.7287C134.7944,428.6194,116.0328,432.4936,108.4137,426.8115Z" transform="translate(-19.71428 -52.64812)"/><path class="cls-6" d="M397.67089,402.572s-.8784-28.9483,22.8149-52.1999,49.8133-19.3695,49.8133-19.3695,1.0593,27.4958-18.1775,48.9807-39.7211,27.7431-39.7211,27.7431Z" transform="translate(-19.71428 -52.64812)"/><path class="cls-5" d="M412.40049,407.7264c5.6668,1.849,12.4797.8954,18.3138-.3266,9.58271-2.0072,20.04271-8.7727,31.053-18.8958,17.81271-16.3773,18.5184-34.5084,18.5184-34.5084s-28.7292.6931-47.2902,17.4188-27.8339,33.7789-27.8339,33.7789Z" transform="translate(-19.71428 -52.64812)"/><path class="cls-5" d="M190,404.2414s2.5714-11.7701,16.57139-15.4844,16.8572,5.7143,29.1429,1.7143,11.1428-9.5303,26-8.3366,16.8571,10.3366,26.5714,8.3366,17.4224,4.6688,17.7112,10.1915C305.99689,400.6628,240.57139,405.4402,190,404.2414Z" transform="translate(-19.71428 -52.64812)"/><circle class="cls-2" cx="345.22443" cy="91.29848" r="10.55086"/><circle class="cls-2" cx="411.11061" cy="144.64468" r="5.8271"/><circle class="cls-7" cx="118.79554" cy="91.29848" r="10.55086"/><path class="cls-7" d="M79.1389,195.5388a7.06955,7.06955,0,1,1-7.0696-7.0695A7.06964,7.06964,0,0,1,79.1389,195.5388Z" transform="translate(-19.71428 -52.64812)"/><ellipse class="cls-6" cx="231.21079" cy="362.28358" rx="42.42477" ry="7.5258"/><path class="cls-5" d="M283.16709,306.9598a40.20921,40.20921,0,0,0-1.13-8.5,39.30111,39.30111,0,0,0-28.43-28.82,39.93569,39.93569,0,0,0-11.1099-1.25c-.6401.02-1.2601.05-1.8901.1a39.468,39.468,0,1,0,31.73,66.58A38.93849,38.93849,0,0,0,283.16709,306.9598Zm54.67-174.53a72.54805,72.54805,0,0,0-12.99-39.75,85.06183,85.06183,0,0,0-24.4099-23.23c-17.5301-11.26-39.63-17.37-62.62-16.76a127.41824,127.41824,0,0,0-15.3601,1.32,98.57818,98.57818,0,0,0-29.19,8.87h-.0099a84.23275,84.23275,0,0,0-30.9101,25.91,28.67206,28.67206,0,0,0,46.14,34.05,38.63953,38.63953,0,0,1,19.6-14.31,40.09963,40.09963,0,0,1,10.81-1.74c15.51-.42,28.2201,10.97,28.6601,27.51.62,23.36-17.2301,25.83-36.8301,38.19-.93.59-1.8599,1.19-2.7899,1.82-15.24,10.4-15.6001,22.82-15.19,37.98l.2299,9.04a28.53,28.53,0,0,0,28.51,27.77c.25,0,.5101,0,.7701-.01a28.548,28.548,0,0,0,25.62-17.52,27.61187,27.61187,0,0,0,1.9799-7.95c.54-5.7,1.7701-11.25,4.2001-15.27v-.01a11.67066,11.67066,0,0,1,7.38-5.8c14.93-6.85,28.18-15.02,38.0799-25.1C331.28709,165.4598,338.32709,150.7798,337.83709,132.4298Z" transform="translate(-19.71428 -52.64812)"/><path class="cls-6" d="M233.99719,231.3298c9.6691,6.6675,24.2399,8.25,33.88.24a28.548,28.548,0,0,1-25.62,17.52c-.26.01-.5201.01-.7701.01a28.53,28.53,0,0,1-28.51-27.77l-.2299-9.04c-.4101-15.16-.05-27.58,15.19-37.98.93-.63,1.8599-1.23,2.7899-1.82,19.6-12.36,37.4501-14.83,36.8301-38.19-.44-16.54-13.1501-27.93-28.6601-27.51a40.09963,40.09963,0,0,0-10.81,1.74,38.63953,38.63953,0,0,0-19.6,14.31,28.66832,28.66832,0,0,1-50.98989-10.89c8.81,3.2,22.0678,6.7908,33.6499-2.05,31.06759-23.7143,66.43-32.7843,88.71.2857,22.29,33.07-5.4875,61.4062-40.7142,75.0545C221.82259,191.9506,228.42859,227.4899,233.99719,231.3298Z" transform="translate(-19.71428 -52.64812)"/><path class="cls-8" d="M162.7785,101.1606s-2.6893,16.788,14.565,23.3167,29.14579-22.1509,55.26039-24.9489,38.1233,11.6584,41.4457,24.9489" transform="translate(-19.71428 -52.64812)"/><path class="cls-9" d="M220.94569,199.973s-2.798,17.8738,3.0311,30.9962,28.4463,14.0662,35.4413-1.0951-2.01109-21.5443,18.1141-32.2262,26.887-17.0941,30.3845-21.1162" transform="translate(-19.71428 -52.64812)"/><path class="cls-9" d="M221.82259,60.5897s52.56-7.7417,84.6951,22.1508,17.2644,71.757,17.2644,71.757" transform="translate(-19.71428 -52.64812)"/><path class="cls-8" d="M253.18089,168.112s23.2584-9.9422,22.384-34.5995" transform="translate(-19.71428 -52.64812)"/><path class="cls-6" d="M272.33709,335.0698a39.482,39.482,0,1,1-31.73-66.58c.63-.05,1.25-.08,1.8901-.1a39.93569,39.93569,0,0,1,11.1099,1.25c-13.1099,2.03-35.28,9.08-34.3599,33.48,1.32,34.56,40.8599,32.84,51,8.5,3.82-9.15,8.0299-12.87,11.7899-13.16a40.20921,40.20921,0,0,1,1.13,8.5A38.93849,38.93849,0,0,1,272.33709,335.0698Z" transform="translate(-19.71428 -52.64812)"/><path class="cls-10" d="M274.704,308.3254a31.34861,31.34861,0,0,1-62.69721,0c0-17.3134,11.4446-32.2024,28.758-32.2024" transform="translate(-19.71428 -52.64812)"/><path class="cls-6" d="M195.7934,420.5101c0,3.0809-12.9381,5.5785-28.898,5.5785s-28.898-2.4976-28.898-5.5785,12.9381-5.5784,28.898-5.5784S195.7934,417.4292,195.7934,420.5101Z" transform="translate(-19.71428 -52.64812)"/><path class="cls-11" d="M178.1043,289.0662c-.4629-.1158-1.3309,1.0415-1.3309,1.0415l-1.7359-1.8517a16.658,16.658,0,0,0,.5787-2.7197c.1424-1.0328.3219-3.1596.4391-4.6441,2.7774-3.1633,10.9593-13.2111,9.5136-20.2954-1.736-8.5062-8.1011-24.8818-8.1011-24.8818-1.5249.024-10.8516,5.2657-10.8516,5.2657l8.537,21.0048-4.5886,13.7706-.0717-.0451-3.5815,8.5645a4.88515,4.88515,0,0,0,.8314,5.1008,10.36743,10.36743,0,0,0,2.0291,1.9466c1.0994.5786,6.3072,2.2567,7.2041,1.7359s1.9385-2.9511,1.9385-2.9511S178.5673,289.1819,178.1043,289.0662Z" transform="translate(-19.71428 -52.64812)"/><polygon class="cls-11" points="125.027 348.351 127.136 362.284 135.674 359.056 135.05 348.351 125.027 348.351"/><polygon class="cls-11" points="152.339 346.731 153.904 357.163 164.941 360.519 163.218 346.731 152.339 346.731"/><path class="cls-12" d="M185.6552,404.5096c-7.1254,4.1605-15.6186,1.3869-15.6186,1.3869l-12.1372-98.6468-1.3772.6791.6217,37.8748.1817,10.7121.8129,49.7538a19.32653,19.32653,0,0,1-14.3178,0l-8.7609-96.3704a99.60143,99.60143,0,0,1-.3061-35.4455c5.9203.3156,35.8185.2773,35.8185.2773s5.8151,39.6252,7.5941,51.7145c.4591,3.1371,1.0042,7.7662,1.5877,13.2275.5547,5.2508,1.1573,11.2859,1.7407,17.5123C183.618,379.6136,185.6552,404.5096,185.6552,404.5096Z" transform="translate(-19.71428 -52.64812)"/><path class="cls-13" d="M166.6163,215.6793a42.31485,42.31485,0,0,1,12.7032,21.3087l-8.9111,2.3146Z" transform="translate(-19.71428 -52.64812)"/><path class="cls-14" d="M154.8721,211.9582c.2887.2504,7.5075,1.7905,10.8764,3.138,3.3687,1.3475,6.8338,13.5715,7.1225,20.8866s-2.1971,39.4451-2.1971,39.4451c-3.2431,4.3955-35.7511-.9766-35.7511-.9766s-8.7337-31.9673-8.1562-49.0562a23.11138,23.11138,0,0,1,1.925-8.8551l14.8826-4.9415Z" transform="translate(-19.71428 -52.64812)"/><path class="cls-11" d="M142.1675,214.6483s4.2357,3.4631,8.9834,3.4631,5.5159-3.5933,5.5159-3.5933a13.3138,13.3138,0,0,1-1.2847-3.1667,24.065,24.065,0,0,1-.7681-6.0728l-10.3937-5.0039a19.77635,19.77635,0,0,1,.3593,7.1015A18.97715,18.97715,0,0,1,142.1675,214.6483Z" transform="translate(-19.71428 -52.64812)"/><path class="cls-15" d="M144.5796,207.3762a15.37768,15.37768,0,0,0,10.8025,3.9752,24.065,24.065,0,0,1-.7681-6.0728l-10.3937-5.0039A19.77635,19.77635,0,0,1,144.5796,207.3762Z" transform="translate(-19.71428 -52.64812)"/><path class="cls-11" d="M136.873,190.4558a3.31688,3.31688,0,0,1,3.6864,1.0414,38.70292,38.70292,0,0,1-.4459-7.9073c.385-8.7268,16.6836-8.9834,20.5336-7.1868s3.828,12.2521,3.7859,13.9244c0,0,.5775,9.6893-3.7859,14.8228-4.3634,5.1333-12.5769,3.7216-15.5286-1.1551a34.26433,34.26433,0,0,1-1.9272-3.6814,6.59561,6.59561,0,0,1-5.2595-1.7729C135.2367,196.1346,134.0818,191.6109,136.873,190.4558Z" transform="translate(-19.71428 -52.64812)"/><path class="cls-16" d="M138.6117,176.4906a5.85184,5.85184,0,0,1,3.5558-4.8606c3.3013-1.2152,4.7768.1736,6.1655-.6944s3.4719-3.7323,7.5514-3.0379,5.121,3.9927,6.7701,3.0379,4.7738-.3472,6.3362,2.9511-1.6492,4.6002-.868,5.989,1.9095,2.2567.868,4.687-2.5171,1.0416-2.5171,2.6907-2.0406,3.0741-2.0406,3.0741-.3029-6.7196-.9973-8.1083a7.14605,7.14605,0,0,1-6.3362,1.9095c-2.5823-.4242-3.009,1.3888-4.3978,2.6907s-6.4807,1.0995-6.4807,1.0995.049,6.1046-2.0007,7.667-1.1823-2.8274-3.6609-4.0887c-2.4787-1.2615-4.1176-.338-4.378,2.6131s3.5174,6.5049,7.0099,6.2035a11.73163,11.73163,0,0,1,1.4941,2.9427,14.02964,14.02964,0,0,1-.1058,4.1197s-12.0002-7.7977-13.6928-13.9602.7378-9.4609.7378-9.4609a8.17841,8.17841,0,0,1,1.2152-4.7304C134.3153,176.7944,138.6117,176.4906,138.6117,176.4906Z" transform="translate(-19.71428 -52.64812)"/><path class="cls-11" d="M162.8715,210.7319a10.12994,10.12994,0,0,0,.3472-1.5388,6.3562,6.3562,0,0,0-.8246-2.0198,4.90951,4.90951,0,0,0,.2604-1.3586c.0435-.7943.5642-3.3719-.434-3.6323s-1.953,4.7305-3.2549,5.6853-3.0813,2.0831-2.9511,1.8227a10.04814,10.04814,0,0,0,0-2.5604c-.0868-.5209-.868-2.0832-1.3974-1.3153s-1.6405,5.1777-1.2933,6.3928,1.1283,4.3325,1.1283,4.3325l-.7377,2.8283-7.3777,31.2468-6.423-11.0232-14.7555,5.0398s11.2836,19.9577,17.7066,22.388a14.96961,14.96961,0,0,0,5.3584,1.0736c.008.0011.015.0058.0229.0066,2.5323.2545,7.2911-.733,10.2422-7.156s1.8224-41.0681,1.8224-41.0681h0l.304-1.1151s1.6926-2.9511,1.9541-3.2952.0857-1.8258.0857-1.8258a2.46311,2.46311,0,0,0,.5657-1.1718A4.57422,4.57422,0,0,0,162.8715,210.7319Z" transform="translate(-19.71428 -52.64812)"/><path class="cls-17" d="M146.2457,411.7039s-.0578,6.9437,0,8.101,1.0994,3.414,3.9927,4.9763,6.6544,1.3888,8.6797,1.1573,3.5876-.8679,4.1662-1.8517c.5786-.9836-.0232-2.5459-1.0821-4.3976s-3.4892-2.4303-4.5886-4.5135-1.5618-3.8738-2.141-4.3398-3.3053-.3283-4.3433.2119-2.1954,2.1606-2.7162,2.1606S147.4031,411.7617,146.2457,411.7039Z" transform="translate(-19.71428 -52.64812)"/><path class="cls-17" d="M173.0344,409.2138c.1103,2.2749.4042,6.8468,1.0442,8.6816,0,0,.0256,1.178,3.4397,1.3516s7.1495.0372,9.3484.4422,8.0432.1736,8.9689-.463a2.42216,2.42216,0,0,0,.058-3.7611c-1.4467-1.0416-10.1264-5.3814-11.8045-6.8281a6.06825,6.06825,0,0,0-3.5875,1.5045c-1.1849,1.0971-4.2667-.8344-6.1664-1.7813A.90149.90149,0,0,0,173.0344,409.2138Z" transform="translate(-19.71428 -52.64812)"/><path class="cls-18" d="M134.2269,277.6471a83.793,83.793,0,0,0,21.4987,3.3048c11.2723.1025,15.4484-2.1182,15.4484-2.1182" transform="translate(-19.71428 -52.64812)"/><path class="cls-18" d="M156.5208,307.93s1.5617-8.2935,7.1637-10.4796" transform="translate(-19.71428 -52.64812)"/><path class="cls-18" d="M162.4479,280.7048s1.2366,8.5701-.5396,12.4529-3.0015,3.063-3.0015,3.063V284.4344" transform="translate(-19.71428 -52.64812)"/><path class="cls-18" d="M133.4929,285.4194s6.8248-.3898,8.0557-5.9982" transform="translate(-19.71428 -52.64812)"/><path class="cls-18" d="M143.4358,402.0521a21.86958,21.86958,0,0,0,14.4418.1621" transform="translate(-19.71428 -52.64812)"/><path class="cls-18" d="M169.639,402.6973s8.9532,1.7318,16.0166-1.6984" transform="translate(-19.71428 -52.64812)"/><path class="cls-19" d="M157.3256,356.5157a6.7165,6.7165,0,0,1-5.4995,3.0893c-3.9119,0-7.0872-3.7301-7.0872-8.3305s3.1753-8.321,7.0872-8.321a6.60378,6.60378,0,0,1,5.3178,2.8501Z" transform="translate(-19.71428 -52.64812)"/><path class="cls-19" d="M181.4947,357.1852a5.60357,5.60357,0,0,1-1.7024.2583c-3.9023,0-7.0681-3.9788-7.0681-8.8853,0-4.8874,3.1466-8.8566,7.0298-8.8853C180.3087,344.9237,180.9113,350.9588,181.4947,357.1852Z" transform="translate(-19.71428 -52.64812)"/><path class="cls-18" d="M135.7556,284.9881a242.25389,242.25389,0,0,0,1.7652,24.5544l3.9607,47.9034,3.2597,45.0537" transform="translate(-19.71428 -52.64812)"/><path class="cls-18" d="M158.4089,302.6902s8.0766,47.2275,8.2815,51.3265,5.363,49.3259,5.363,49.3259" transform="translate(-19.71428 -52.64812)"/><path class="cls-20" d="M146.3367,250.6151s-1.0856,3.9323-2.1164,8.8511" transform="translate(-19.71428 -52.64812)"/><path class="cls-20" d="M175.1532,261.9855s4.0846-2.0102,7.2501-1.6995" transform="translate(-19.71428 -52.64812)"/><path class="cls-13" d="M128.6916,216.54s-7.3524,2.5679-7.8732,12.6363a49.30687,49.30687,0,0,0,2.6039,18.2273l18.7452-6.9437S135.5233,219.7007,128.6916,216.54Z" transform="translate(-19.71428 -52.64812)"/><path class="cls-20" d="M162.3941,207.1733a9.00667,9.00667,0,0,1-1.4423,2.0198" transform="translate(-19.71428 -52.64812)"/><path class="cls-20" d="M162.8715,210.7319s-.6823,1.3054-1.1985,1.5616" transform="translate(-19.71428 -52.64812)"/><line class="cls-20" x1="142.94021" y1="160.99158" x2="141.95872" y2="162.00228"/><path class="cls-20" d="M174.2224,416.6291s2.6643.2561,7.4807.5636,11.2722.871,14.0903,0" transform="translate(-19.71428 -52.64812)"/><path class="cls-20" d="M146.7419,418.7313a9.14743,9.14743,0,0,0,6.3535,3.7388,27.61281,27.61281,0,0,0,9.0178-.3415" transform="translate(-19.71428 -52.64812)"/><path class="cls-20" d="M162.4073,202.3452s-.0208-.3248-.5912,0-1.7866,4.3634-2.4526,5.1007a29.44825,29.44825,0,0,1-3.4073,2.5163,4.57447,4.57447,0,0,0,0-3.0551c-.6149-1.4412-1.3391-1.0924-1.3391-1.0924a14.72215,14.72215,0,0,0-1.3266,5.1533,27.22614,27.22614,0,0,0,1.1031,5.7966" transform="translate(-19.71428 -52.64812)"/><path class="cls-20" d="M138.5098,193.0794s2.8693,2.5619,3.2279,4.9188" transform="translate(-19.71428 -52.64812)"/><path class="cls-20" d="M139.3296,197.4858s.4348-1.5883,1.319-1.947" transform="translate(-19.71428 -52.64812)"/><line class="cls-21" x1="104.44891" y1="191.72958" x2="120.23011" y2="186.08398"/><line class="cls-22" x1="119.61531" y1="124.15478" x2="122.45321" y2="124.15478"/><line class="cls-22" x1="113.15931" y1="131.60128" x2="114.52572" y2="131.94288"/><path class="cls-22" d="M164.4583,180.6287a4.69262,4.69262,0,0,1-3.4723,3.3475c-3.006.8539-4.4192-.4881-5.526.2311s-3.3382,5.0925-9.239,3.7116c0,0-.2722,7.6875-2.4546,7.9355s-1.0722-3.6292-3.6427-4.5599" transform="translate(-19.71428 -52.64812)"/><path class="cls-22" d="M159.8246,172.5843s1.3983.2626,1.7567-.6148" transform="translate(-19.71428 -52.64812)"/><path class="cls-22" d="M149.2697,171.9695a2.639,2.639,0,0,0,1.6908.3258" transform="translate(-19.71428 -52.64812)"/><line class="cls-22" x1="125.04641" y1="132.33568" x2="125.86621" y2="132.84808"/><path class="cls-22" d="M151.7291,179.8088a3.86683,3.86683,0,0,1,3.2108-.5465" transform="translate(-19.71428 -52.64812)"/><path class="cls-7" d="M124.5253,178.8418a33.86431,33.86431,0,0,1-15.6701-8.3132,37.05337,37.05337,0,1,0-14.1222,6.6296A44.33822,44.33822,0,0,0,124.5253,178.8418Z" transform="translate(-19.71428 -52.64812)"/><path class="cls-5" d="M75.3122,130.7076a5.12967,5.12967,0,0,1-2.3821-7.6092c2.1078-3.1626,6.0294-6.5514,13.1966-7.0692,9.2281-.6667,17.9072,4.7664,18.5338,13.4406.4356,6.0289-3.7889,10.0446-9.5125,12.9934-1.3564.3859-1.81,2.0963-1.8983,3.8628a5.08006,5.08006,0,0,1-4.7272,4.7788h0a5.10462,5.10462,0,0,1-5.4593-4.7235l-.1166-1.6142c-.1955-2.7068-.2326-4.9303,2.4068-6.9144,3.5795-2.6705,7.0728-3.1084,6.7572-7.4762a4.914,4.914,0,0,0-5.3476-4.6845,6.79228,6.79228,0,0,0-5.3067,3.1175,5.12847,5.12847,0,0,1-6.1441,1.8981ZM96.3105,161.117a7.06243,7.06243,0,1,1-7.5859-6.5635A7.04188,7.04188,0,0,1,96.3105,161.117Z" transform="translate(-19.71428 -52.64812)"/><path class="cls-6" d="M407.62639,413.845c.1064,4.1551-18.7952,8.0099-42.218,8.6101s-42.4972-2.2816-42.6037-6.4367,18.7952-8.0098,42.2181-8.61S407.51989,409.69,407.62639,413.845Z" transform="translate(-19.71428 -52.64812)"/><path class="cls-11" d="M358.91419,360.6058s1.1285,3.0091.13081,15.6639-1.896,26.7838-1.896,26.7838l-8.05221,1.1879-4.5559-42.6664Z" transform="translate(-19.71428 -52.64812)"/><path class="cls-11" d="M387.03939,360.9515s1.46961,2.858,1.9454,15.5432,1.2213,26.8231,1.2213,26.8231l-8.1907-.3211-9.1401-39.4165Z" transform="translate(-19.71428 -52.64812)"/><path class="cls-23" d="M341.28519,291.215l1.8746,76.6018c3.7335,3.783,17.9867-.1192,17.9867-.1192s1.899-68.4754,2.0769-74.7524C363.22339,292.9452,360.18269,282.8817,341.28519,291.215Z" transform="translate(-19.71428 -52.64812)"/><line class="cls-24" x1="339.50321" y1="251.47788" x2="337.79211" y2="311.86448"/><path class="cls-13" d="M389.09919,366.4775l-7.4288-71.375s.63461-15.2892-5.6085-27.2912l-34.1297.5727-.647,22.831,15.5252,6.3524c3.4194,15.3241,15.6641,69.7805,15.6641,69.7805C379.38309,372.0708,389.09919,366.4775,389.09919,366.4775Z" transform="translate(-19.71428 -52.64812)"/><path class="cls-5" d="M347.16939,210.6657l-25.9813,26.8905,6.1947,9.5986s14.7863-6.695,18.2911-13.0161C349.17889,227.8178,347.16939,210.6657,347.16939,210.6657Z" transform="translate(-19.71428 -52.64812)"/><path class="cls-6" d="M358.62789,207.3361c-.2838.2324-7.2487,1.5132-10.516,2.7139-3.2676,1.2008-6.9228,12.8299-7.3986,19.8374-.4756,7.0077,1.2189,38.4966,1.2189,38.4966,2.9909,4.3036,34.1297-.5727,34.1297-.5727s9.2445-30.4203,9.155-46.8249a22.17633,22.17633,0,0,0-1.6054-8.5447l-14.1388-5.1436Z" transform="translate(-19.71428 -52.64812)"/><path class="cls-16" d="M348.648,183.5206a36.34752,36.34752,0,0,1-1.57261,12.0268,42.41925,42.41925,0,0,1-2.9785,7.3061c.0546.248,1.1415,1.0116,2.87411.7251s1.89629.4572,3.77079,1.6804c1.8747,1.2233,2.78321-.4137,4.169.6725a8.70355,8.70355,0,0,0,5.1345,1.3772c.6839-.2269-1.2648-9.7052-1.2648-9.7052l-4.7368-15.4081Z" transform="translate(-19.71428 -52.64812)"/><path class="cls-11" d="M369.41819,207.1265a4.33857,4.33857,0,0,1-2.6343,5.2958,12.31007,12.31007,0,0,1-4.7545.9161q-.10815-.003-.2133-.0086a4.38445,4.38445,0,0,1-3.9204-5.8115c.0936-.2583.1799-.5183.2595-.778a23.084,23.084,0,0,0,.9016-5.8031l10.1041-4.5165a18.97226,18.97226,0,0,0-.5376,6.8007A19.71112,19.71112,0,0,0,369.41819,207.1265Z" transform="translate(-19.71428 -52.64812)"/><path class="cls-15" d="M368.62329,203.2214a14.75268,14.75268,0,0,1-10.4681,3.5189,23.084,23.084,0,0,0,.9016-5.8031l10.1041-4.5165A18.97226,18.97226,0,0,0,368.62329,203.2214Z" transform="translate(-19.71428 -52.64812)"/><path class="cls-11" d="M376.474,187.2037a3.18254,3.18254,0,0,0-3.56381.8984,37.12051,37.12051,0,0,0,.6426-7.5711c-.1321-8.3798-15.756-9.0689-19.4972-7.4504s-4.0041,11.6461-4.0092,13.2511c0,0-.8172,9.2767,3.2281,14.3184,4.0451,5.0417,11.96051,3.911,14.9238-.6858a32.89805,32.89805,0,0,0,1.9483-3.4781,6.3287,6.3287,0,0,0,5.0922-1.5573C377.88889,192.6944,379.11959,188.3872,376.474,187.2037Z" transform="translate(-19.71428 -52.64812)"/><path class="cls-16" d="M354.38789,171.8627s-2.1947-.4362-4.1403,3.0192-2.7392,7.5594-4.4253,8.3738a15.39886,15.39886,0,0,0,5.00971,1.4353s1.221-3.9686,2.67469-5.2824a51.72218,51.72218,0,0,0-.9726,6.0697s5.0148,1.249,7.2381,1.0356l1.2852-4.0582.4547,4.1519a21.99262,21.99262,0,0,0,4.7121.4288l1.2773-3.7822s-.7723,5.521,1.2271,6.6862c0,0-.3314,2.7268.8679,4.1511,0,0,2.0489-6.0211,5.2061-5.5006,3.157.5206,1.1889,5.5244-.7435,6.677a8.78462,8.78462,0,0,1-3.9444,1.1799s-1.2221,2.3767-1.48869,2.8203c0,0-.558,4.5335.26619,6.6361s3.5012,1.4157,4.1612.9494,1.8164.2823,3.2313.0684,1.4662-1.2055,2.2745-1.2057,1.8666.1452,2.3787-.8103c0,0,.2584-.6932,1.79511-.5881a3.4681,3.4681,0,0,0,3.56979-2.0941s-4.5732-3.2699-3.8607-11.0278c.7127-7.7581-.5036-11.1715-2.5657-12.5626,0,0-.61-5.3339-8.6211-8.7019C363.244,166.5635,357.05269,169.1051,354.38789,171.8627Z" transform="translate(-19.71428 -52.64812)"/><path class="cls-5" d="M383.61149,212.4417a28.8662,28.8662,0,0,0-4.6086,10.4933,13.20492,13.20492,0,0,0,1.8749,9.9073L399.131,251.5898l6.62329-7.6957s-6.404-11.1442-13.168-21.19S383.61149,212.4417,383.61149,212.4417Z" transform="translate(-19.71428 -52.64812)"/><path class="cls-11" d="M327.23739,241.423c-1.125-5.7159-11.713-21.6852-14.4343-25.7223h0a10.39052,10.39052,0,0,0-1.6879-4.1181c-.547-2.4976-1.2644-7.0621-1.8779-5.4517a10.58421,10.58421,0,0,0-.2541,4.4825l-5.31419-1.3912c-.86491-.3267-3.36451-1.1928-4.47561-.7428-.9129.3699,1.7068,1.3873,3.5143,2.0123l-.1329.3307c-1.06779-.4039-3.8596-1.3757-4.9456-.9358-1.0794.437,2.7783,1.7795,4.394,2.3081l-.24419.6074c-.17851-.0726-3.44451-1.3881-4.76251-.8543-1.0388.4207,2.4959,1.6802,4.2034,2.2455l-.1555.3866c-1.0661-.3777-3.1247-1.0049-4.1053-.6078-1.355.5487,5.0756,2.526,5.0756,2.526l5.25531,2.3132c1.10359,3.9417,6.426,22.5404,9.62029,26.2608,3.5772,4.1661,7.0235,4.2638,8.1382,4.049S328.52949,247.988,327.23739,241.423Z" transform="translate(-19.71428 -52.64812)"/><path class="cls-11" d="M427.69909,218.3142c-.9564-.452-3.0473.0576-4.133.3744l-.1333-.3949c1.7367-.4676,5.3371-1.5248,4.3237-2.0037-1.2856-.6076-4.6208.5208-4.8032.5833l-.2094-.6202c1.643-.4364,5.5705-1.5582,4.5176-2.0558-1.0593-.5005-3.9017.3116-4.9907.6543l-.1139-.3377c1.84-.5217,4.51311-1.3892,3.6226-1.81-1.0839-.5122-3.6284.2108-4.5104.4882l-5.3845,1.088a10.582,10.582,0,0,0,.0001-4.4898c-.5213-1.6425-1.496,2.8741-2.1835,5.3367a10.39065,10.39065,0,0,0-1.9185,4.016l.0514.0378L399.131,251.5897c3.82339,3.9269,8.99619,4.1966,11.07709.3139,1.804-3.3663,6.8815-24.3128,8.2011-29.8285l4.0795-1.5264S429.021,218.9389,427.69909,218.3142Z" transform="translate(-19.71428 -52.64812)"/><path class="cls-17" d="M341.16339,407.2061c-3.92,2.2364-7.1396,1.8845-7.77,4.5325-.3626,1.5229,5.06461,2.1817,8.4992,2.279s7.6983-.9556,10.7283-1.3728,5.2257-.6902,5.6128-1.1824c.3871-.492-.0248-6.6659-.2476-7.6782a2.83111,2.83111,0,0,0-.7883-1.4907,16.28461,16.28461,0,0,1-4.2297,1.055c-2.7775.3825-2.399-1.3288-4.0628-.9008C347.75019,402.745,345.08329,404.9697,341.16339,407.2061Z" transform="translate(-19.71428 -52.64812)"/><path class="cls-17" d="M381.02039,401.8137s-1.1673,3.9735-2.1167,7.887c-.9492,3.9134-3.031,6.3697-2.8271,8.0522s1.3482,2.7209,3.3587,2.7779,5.1194-.1902,7.36171-2.3904c2.24209-2.2001,3.366-6.3601,3.81809-7.5211a50.55818,50.55818,0,0,0,1.7526-5.6326c.0147-.5214-2.4213-6.7867-2.4213-6.7867s-.9131,3.1523-2.0283,4.043S384.369,399.7246,381.02039,401.8137Z" transform="translate(-19.71428 -52.64812)"/><path class="cls-25" d="M356.47539,207.8819s-1.5752,1.3967-.3196,4.0976c1.2556,2.7011,7.7324,4.487,12.0389,2.0498s4.9787-5.3849,4.9787-5.3849" transform="translate(-19.71428 -52.64812)"/><path class="cls-26" d="M341.83969,271.6485s1.9859,1.6282,11.2714,1.9596c9.2853.3315,24.3994-2.671,24.3994-2.671" transform="translate(-19.71428 -52.64812)"/><path class="cls-26" d="M347.06869,274.5988s.1765,8.2438,1.9508,13.1619,4.5392,6.2267,4.5392,6.2267l-2.3805-17.2902" transform="translate(-19.71428 -52.64812)"/><path class="cls-26" d="M368.93779,272.3759s2.8403,4.49,6.8871,5.2247" transform="translate(-19.71428 -52.64812)"/><path class="cls-26" d="M375.48959,271.3143s1.1691.979,2.5253,18.2403c1.3563,17.2611,8.5402,74.8738,8.5402,74.8738" transform="translate(-19.71428 -52.64812)"/><path class="cls-26" d="M371.99709,365.2244s10.40891,1.5354,16.8095-1.558" transform="translate(-19.71428 -52.64812)"/><path class="cls-24" d="M343.09059,364.9873s2.714,1.2594,8.1603.7987a73.964,73.964,0,0,0,9.9919-1.5623" transform="translate(-19.71428 -52.64812)"/><path class="cls-27" d="M383.15449,216.7085s-3.2126,8.768-1.4394,14.6191" transform="translate(-19.71428 -52.64812)"/><path class="cls-27" d="M400.89309,241.9176s-1.7842,4.9727-1.7249,8.3575" transform="translate(-19.71428 -52.64812)"/><path class="cls-27" d="M327.32139,237.065a9.66006,9.66006,0,0,1,2.3664,6.9357" transform="translate(-19.71428 -52.64812)"/><path class="cls-27" d="M338.87269,223.7576s-.9376,7.7647-.3309,11.6776" transform="translate(-19.71428 -52.64812)"/><line class="cls-20" x1="398.69491" y1="169.42688" x2="396.28041" y2="170.06358"/><line class="cls-20" x1="287.57572" y1="166.16318" x2="289.54541" y2="166.98998"/><path class="cls-20" d="M308.98319,210.6134s-.2649,2.8071.41581,4.1078" transform="translate(-19.71428 -52.64812)"/><line class="cls-20" x1="283.35621" y1="157.48558" x2="281.11691" y2="162.34298"/><path class="cls-20" d="M415.76579,214.5058a5.086,5.086,0,0,1-.3915,2.9619" transform="translate(-19.71428 -52.64812)"/><line class="cls-20" x1="401.96472" y1="161.20508" x2="403.92241" y2="166.28388"/><path class="cls-20" d="M334.51429,411.3416s1.46571,1.34,9.7539.6864a85.72721,85.72721,0,0,0,13.1071-1.8839" transform="translate(-19.71428 -52.64812)"/><path class="cls-20" d="M377.03469,418.2189s5.3111.6973,8.6702-2.078,5.6614-11.6632,5.6614-11.6632" transform="translate(-19.71428 -52.64812)"/><line class="cls-22" x1="360.16211" y1="125.98528" x2="357.33401" y2="126.29808"/><path class="cls-22" d="M350.99389,175.8671a16.22041,16.22041,0,0,0-1.5782,3.2358" transform="translate(-19.71428 -52.64812)"/><line class="cls-22" x1="334.67361" y1="119.21458" x2="336.36381" y2="119.26248"/><line class="cls-22" x1="338.03631" y1="125.35838" x2="337.47111" y2="127.39268"/><line class="cls-22" x1="344.52011" y1="126.56718" x2="345.05661" y2="128.06888"/><path class="cls-22" d="M379.39559,181.1314a12.15555,12.15555,0,0,1,1.9672,8.3596" transform="translate(-19.71428 -52.64812)"/><path class="cls-22" d="M367.284,170.7929s7.254.8719,10.08669,5.8216" transform="translate(-19.71428 -52.64812)"/><path class="cls-22" d="M370.50539,198.2047s.72561,5.1465,1.847,7.1772" transform="translate(-19.71428 -52.64812)"/><line class="cls-22" x1="354.10861" y1="146.06068" x2="354.90821" y2="148.59508"/><path class="cls-22" d="M378.11749,197.2928a43.15838,43.15838,0,0,0,2.2229,4.762" transform="translate(-19.71428 -52.64812)"/><path class="cls-22" d="M348.80959,202.3058a23.08272,23.08272,0,0,0,1.1066-4.6844" transform="translate(-19.71428 -52.64812)"/><path class="cls-7" d="M421.67909,125.441a29.41111,29.41111,0,0,0-15.3842,54.4775,77.66628,77.66628,0,0,1-14.0264,11.818s18.1526-.3969,28.9658-7.4856c.1486.0022.2956.0112.4448.0112a29.41055,29.41055,0,0,0,0-58.8211Z" transform="translate(-19.71428 -52.64812)"/><path class="cls-5" d="M412.62809,142.3538a4.7294,4.7294,0,0,1-.0408-7.3509c2.7135-2.2171,7.0866-4.1429,13.5436-2.6601,8.3136,1.9092,14.49311,9.0459,12.6985,16.8605-1.2473,5.4315-6.057,7.8277-11.89939,8.8781-1.3-.0268-2.16251,1.3579-2.71831,2.891a4.68356,4.68356,0,0,1-5.4592,2.9329h-.0001a4.70637,4.70637,0,0,1-3.5335-5.6402l.3339-1.4542c.5601-2.4387,1.1289-4.4084,3.992-5.4429,3.8774-1.3853,7.0747-.8261,7.9783-4.7611a4.53031,4.53031,0,0,0-3.4457-5.5754,6.2619,6.2619,0,0,0-5.5206,1.3118,4.72814,4.72814,0,0,1-5.9287.0105Zm10.2795,32.4828a6.51118,6.51118,0,1,1-4.9101-7.8372A6.49226,6.49226,0,0,1,422.90759,174.8366Z" transform="translate(-19.71428 -52.64812)"/></g></svg>